<svg xmlns="http://www.w3.org/2000/svg" enable-background="new 0 0 96 96" viewBox="0 0 96 96"><path d="M66.639,29.81c0.001-0.135-0.051-0.264-0.146-0.359c-0.095-0.096-0.243-0.151-0.359-0.146   c-3.405,0.04-6.722,0.625-9.858,1.698c-0.005,0.002-0.01,0.003-0.016,0.005c-4.483,1.536-8.593,4.076-12.032,7.515   c-0.835,0.835-1.614,1.71-2.342,2.618c-3.512,0.064-6.805,1.452-9.295,3.942c-1.449,1.449-2.526,3.179-3.202,5.142   c-0.066,0.192-0.01,0.405,0.143,0.539c0.093,0.082,0.211,0.124,0.33,0.124c0.076,0,0.153-0.018,0.224-0.053   c2.118-1.058,4.518-1.318,6.817-0.763c-0.077,0.214-0.163,0.423-0.236,0.639c-0.086,0.257,0.047,0.535,0.301,0.629   c0.483,0.178,0.948,0.386,1.399,0.615l-0.758,1.363c-0.133,0.24-0.048,0.542,0.19,0.678c0.886,0.502,1.682,1.103,2.366,1.787   s1.285,1.48,1.787,2.366c0.092,0.162,0.261,0.253,0.436,0.253c0.082,0,0.166-0.02,0.242-0.063l1.362-0.757   c0.228,0.451,0.435,0.914,0.613,1.396c0.074,0.202,0.265,0.327,0.469,0.327c0.053,0,0.107-0.008,0.16-0.026   c0.243-0.082,0.478-0.177,0.718-0.264c0.6,2.342,0.353,4.798-0.728,6.959c-0.091,0.182-0.063,0.4,0.071,0.553   c0.097,0.11,0.234,0.17,0.376,0.17c0.055,0,0.109-0.009,0.163-0.027c1.964-0.677,3.693-1.754,5.142-3.203   c2.542-2.542,3.944-5.919,3.953-9.513c0.863-0.699,1.698-1.441,2.494-2.238c3.438-3.438,5.978-7.547,7.514-12.03   c0.003-0.007,0.004-0.013,0.007-0.02C66.015,36.53,66.6,33.214,66.639,29.81z M50.268,62.759c-1.063,1.063-2.291,1.91-3.661,2.528   c0.762-2.074,0.88-4.326,0.332-6.491c2.487-0.989,4.818-2.276,6.948-3.836C53.646,57.907,52.382,60.645,50.268,62.759z    M64.254,38.562l-6.873-6.873c2.644-0.825,5.413-1.295,8.248-1.375C65.549,33.149,65.079,35.918,64.254,38.562z M30.77,49.45   c0.617-1.37,1.465-2.598,2.528-3.661c2.114-2.114,4.853-3.378,7.8-3.619c-0.032,0.043-0.059,0.089-0.091,0.132   c-0.336,0.462-0.658,0.934-0.967,1.413c-0.026,0.041-0.054,0.08-0.08,0.121c-1.063,1.664-1.971,3.425-2.707,5.281   C35.091,48.57,32.84,48.688,30.77,49.45z M42.568,57.227c-0.492-0.794-1.062-1.517-1.697-2.153s-1.358-1.205-2.153-1.697   l0.483-0.87c0.882,0.54,1.68,1.164,2.376,1.86c0.689,0.689,1.311,1.489,1.853,2.381L42.568,57.227z M56.715,51.008   c-3.237,3.237-7.054,5.646-11.349,7.166c-0.704-1.729-1.72-3.264-3.026-4.57c-1.305-1.306-2.841-2.322-4.57-3.027   c0.084-0.238,0.181-0.468,0.271-0.703c0.809-2.116,1.842-4.118,3.078-5.979c0.049-0.074,0.099-0.148,0.149-0.221   c0.382-0.564,0.782-1.115,1.201-1.652c0.762-0.972,1.58-1.907,2.467-2.794c3.263-3.262,7.149-5.689,11.387-7.185l7.578,7.578   C62.404,43.86,59.977,47.746,56.715,51.008z"/><path d="M56.575 39.368c-1.511-1.512-4.146-1.511-5.657 0-1.56 1.56-1.56 4.097 0 5.657.78.78 1.804 1.17 2.828 1.17 1.024 0 2.049-.39 2.829-1.17C58.135 43.465 58.135 40.928 56.575 39.368zM55.868 44.318c-1.171 1.169-3.074 1.169-4.243 0-1.169-1.17-1.169-3.073 0-4.243.567-.567 1.32-.879 2.122-.879.801 0 1.554.312 2.121.879C57.038 41.245 57.038 43.148 55.868 44.318zM37.587 55.092l-.006-.001c-.007-.002-.015-.004-.022-.005-1.979-.397-3.97.667-4.733 2.538l-3.332 8.175c-.076.186-.033.4.109.542.096.096.224.146.354.146.063 0 .127-.012.189-.037l8.174-3.333c1.871-.762 2.938-2.752 2.537-4.739C40.52 56.715 39.228 55.423 37.587 55.092zM37.89 56.552c.099 0 .198.009.297.03l.003 0c.591.119 1.051.579 1.171 1.173.143.704-.237 1.412-.902 1.684l-3.3 1.345 1.345-3.301C36.737 56.913 37.292 56.552 37.89 56.552zM37.942 62.192l-7.074 2.884 2.883-7.075c.463-1.136 1.521-1.874 2.694-1.978-.375.267-.684.633-.867 1.084l-1.794 4.401c-.076.187-.033.4.109.542.096.096.224.146.354.146.063 0 .127-.012.189-.037l4.401-1.794c.448-.183.813-.488 1.08-.861C39.812 60.675 39.076 61.73 37.942 62.192z"/><path d="M48,0C21.533,0,0,21.533,0,48s21.533,48,48,48s48-21.533,48-48S74.467,0,48,0z M48,95C22.084,95,1,73.916,1,48   S22.084,1,48,1s47,21.084,47,47S73.916,95,48,95z"/></svg>